Coordinates
version=1
nRows=34
nColumns=38
inDegrees=no

Units are S.I. units (second, meters, Newtons, ...)
If the header above contains a line with 'inDegrees', this indicates whether rotational values are in degrees (yes) or radians (no).

endheader
time	pelvis_tilt	pelvis_list	pelvis_rotation	pelvis_tx	pelvis_ty	pelvis_tz	hip_flexion_r	hip_adduction_r	hip_rotation_r	knee_angle_r	ankle_angle_r	subtalar_angle_r	mtp_angle_r	hip_flexion_l	hip_adduction_l	hip_rotation_l	knee_angle_l	ankle_angle_l	subtalar_angle_l	mtp_angle_l	lumbar_extension	lumbar_bending	lumbar_rotation	arm_flex_r	arm_add_r	arm_rot_r	elbow_flex_r	pro_sup_r	wrist_flex_r	wrist_dev_r	arm_flex_l	arm_add_l	arm_rot_l	elbow_flex_l	pro_sup_l	wrist_flex_l	wrist_dev_l
2.23	-0.823361	1.43499	-0.626868	1.03331	-0.257978	0.92593	0.269181	0.0361794	-0.31594	0.407628	-0.37204	0	0	-0.369204	-0.184631	-0.245145	0.409277	-0.341567	0	0	-0.141548	0.173003	-0.204904	-0.353302	-0.233361	-0.175825	0.807109	0.404643	0	0	0.0631361	-0.27447	0.184652	0.878207	1.51116	0	0
2.24	-0.834087	1.43038	-0.622008	1.0312	-0.26975	0.927452	0.26046	0.0449325	-0.319673	0.419822	-0.364608	0	0	-0.354153	-0.197013	-0.230303	0.456079	-0.395682	0	0	-0.142782	0.175439	-0.210392	-0.344672	-0.245761	-0.137831	0.797205	0.377847	0	0	0.0381581	-0.268839	0.155497	0.88662	1.52961	0	0
2.25	-0.841892	1.42524	-0.620107	1.02916	-0.281206	0.928941	0.24788	0.0544041	-0.322877	0.425243	-0.358256	0	0	-0.333548	-0.209187	-0.214453	0.515562	-0.428711	0	0	-0.144075	0.17901	-0.206224	-0.344041	-0.243746	-0.138705	0.792396	0.382329	0	0	0.025357	-0.264697	0.14913	0.884507	1.53263	0	0
2.26	-0.856831	1.42087	-0.6113	1.02713	-0.292425	0.930183	0.234105	0.0639995	-0.32593	0.425423	-0.352059	0	0	-0.306859	-0.220988	-0.19827	0.581928	-0.459285	0	0	-0.144203	0.182735	-0.201245	-0.344257	-0.241563	-0.141152	0.789248	0.387078	0	0	0.0130904	-0.260283	0.142845	0.881456	1.5358	0	0
2.27	-0.868118	1.41629	-0.605898	1.02518	-0.303338	0.931221	0.21794	0.0734156	-0.330372	0.421793	-0.348127	0	0	-0.277135	-0.231983	-0.182091	0.652958	-0.471969	0	0	-0.144755	0.186975	-0.190407	-0.349988	-0.239254	-0.147185	0.791308	0.386413	0	0	0.00800394	-0.25816	0.151766	0.873487	1.52665	0	0
2.28	-0.892596	1.41357	-0.587473	1.02324	-0.314093	0.931888	0.203947	0.0832744	-0.331845	0.415684	-0.340857	0	0	-0.241379	-0.242827	-0.169086	0.727053	-0.494989	0	0	-0.143146	0.190414	-0.185733	-0.350786	-0.239867	-0.144321	0.791016	0.384579	0	0	-0.00508679	-0.253611	0.142786	0.871125	1.53089	0	0
2.29	-0.918109	1.41178	-0.567715	1.02142	-0.324615	0.932396	0.190867	0.0926389	-0.330902	0.408587	-0.333627	0	0	-0.203284	-0.253205	-0.158229	0.802143	-0.50945	0	0	-0.141229	0.193215	-0.180072	-0.352144	-0.240217	-0.142814	0.791457	0.382951	0	0	-0.0169107	-0.249066	0.134666	0.868054	1.53486	0	0
2.3	-0.936017	1.4103	-0.555051	1.01981	-0.334912	0.93297	0.176878	0.101167	-0.327783	0.400515	-0.326511	0	0	-0.16534	-0.262551	-0.148542	0.8758	-0.518908	0	0	-0.14042	0.195102	-0.174413	-0.352906	-0.240398	-0.142055	0.791552	0.381669	0	0	-0.0277426	-0.244698	0.127065	0.86415	1.53836	0	0
2.31	-0.939432	1.40895	-0.555935	1.01841	-0.344988	0.933796	0.160924	0.107964	-0.323874	0.392044	-0.320342	0	0	-0.129093	-0.270201	-0.139597	0.945426	-0.526848	0	0	-0.142004	0.195546	-0.169048	-0.352217	-0.240019	-0.141827	0.789914	0.381181	0	0	-0.0372562	-0.240868	0.120619	0.859126	1.54153	0	0
2.32	-0.931442	1.40818	-0.567083	1.01721	-0.354901	0.934858	0.143561	0.112679	-0.319269	0.383004	-0.314899	0	0	-0.0936829	-0.275891	-0.131547	1.01097	-0.529465	0	0	-0.144999	0.194461	-0.164941	-0.35006	-0.239204	-0.141733	0.786609	0.380538	0	0	-0.046041	-0.237375	0.114043	0.85282	1.54529	0	0
2.33	-0.916878	1.40824	-0.583455	1.01621	-0.36464	0.936067	0.125586	0.115836	-0.313313	0.37306	-0.308119	0	0	-0.0588716	-0.279101	-0.123672	1.07154	-0.507472	0	0	-0.146877	0.192911	-0.152971	-0.354025	-0.216359	-0.197938	0.784256	0.433608	0	0	-0.0430089	-0.237444	0.131755	0.835375	1.53212	0	0
2.34	-0.89373	1.40816	-0.607169	1.01534	-0.37428	0.937508	0.104452	0.118749	-0.305148	0.358105	-0.30882	0	0	-0.0274595	-0.279157	-0.112662	1.1227	-0.46397	0	0	-0.154119	0.187572	-0.167874	-0.335404	-0.236361	-0.137448	0.770354	0.387838	0	0	-0.0700191	-0.228421	0.0807828	0.84387	1.56865	0	0
2.35	-0.85377	1.40717	-0.647498	1.01446	-0.383854	0.939124	0.0802065	0.120501	-0.298818	0.344269	-0.30407	0	0	-0.000575436	-0.277414	-0.103295	1.16447	-0.440829	0	0	-0.15991	0.183769	-0.155602	-0.339898	-0.221745	-0.172786	0.768187	0.413894	0	0	-0.0650274	-0.230877	0.101933	0.825386	1.55247	0	0
2.36	-0.818779	1.40686	-0.683004	1.01361	-0.393409	0.940635	0.0558447	0.122428	-0.289712	0.326835	-0.302145	0	0	0.026547	-0.273555	-0.0927891	1.20166	-0.398006	0	0	-0.166073	0.178191	-0.156624	-0.333601	-0.22318	-0.162662	0.760447	0.406126	0	0	-0.0755602	-0.228314	0.0884273	0.819781	1.55913	0	0
2.37	-0.777756	1.40565	-0.725665	1.01272	-0.40307	0.942145	0.0295298	0.124123	-0.280837	0.308658	-0.300694	0	0	0.0524617	-0.274462	-0.105718	1.23593	-0.366663	0	0	-0.173306	0.172619	-0.155584	-0.32962	-0.223604	-0.156334	0.755232	0.400376	0	0	-0.085566	-0.226001	0.0766138	0.81379	1.56459	0	0
2.38	-0.735227	1.40442	-0.769992	1.01181	-0.412608	0.943629	0.00107102	0.126153	-0.267645	0.284172	-0.306166	0	0	0.0762629	-0.271581	-0.1091	1.26085	-0.328354	0	0	-0.181755	0.166031	-0.159755	-0.321252	-0.222876	-0.150277	0.74768	0.402379	0	0	-0.101638	-0.22247	0.053184	0.813209	1.5708	0	0
2.39	-0.696188	1.40569	-0.811571	1.01091	-0.422127	0.944843	-0.0194892	0.123686	-0.264306	0.274638	-0.298981	0	0	0.101298	-0.265518	-0.111134	1.27679	-0.32285	0	0	-0.185376	0.158726	-0.151985	-0.323526	-0.222257	-0.148754	0.745448	0.39339	0	0	-0.104718	-0.222982	0.0569093	0.799747	1.5708	0	0
2.4	-0.653913	1.40631	-0.856798	1.01	-0.431538	0.946051	-0.0420691	0.121605	-0.257383	0.260001	-0.298331	0	0	0.124007	-0.259187	-0.115019	1.28654	-0.305733	0	0	-0.191123	0.150778	-0.149813	-0.320757	-0.22157	-0.144858	0.740877	0.391916	0	0	-0.113959	-0.222769	0.0484931	0.793829	1.5708	0	0
2.41	-0.609596	1.40723	-0.904179	1.00916	-0.440835	0.947168	-0.0631706	0.118153	-0.25189	0.247399	-0.297595	0	0	0.145133	-0.251403	-0.118284	1.28915	-0.289499	0	0	-0.196666	0.142248	-0.147565	-0.318143	-0.221197	-0.14021	0.736435	0.392379	0	0	-0.122678	-0.222689	0.0403287	0.787598	1.5708	0	0
2.42	-0.563759	1.40815	-0.95304	1.00837	-0.450032	0.948175	-0.0833094	0.11382	-0.24668	0.236245	-0.296515	0	0	0.164135	-0.241683	-0.117409	1.2846	-0.273183	0	0	-0.202017	0.133413	-0.145455	-0.31504	-0.220145	-0.136814	0.731836	0.392288	0	0	-0.131049	-0.222732	0.0326871	0.780832	1.5708	0	0
2.43	-0.514291	1.40803	-1.00587	1.00759	-0.459184	0.949102	-0.104685	0.109291	-0.240339	0.223854	-0.296731	0	0	0.180216	-0.231432	-0.116451	1.27465	-0.251378	0	0	-0.208447	0.125147	-0.139467	-0.314486	-0.203005	-0.177958	0.729116	0.434631	0	0	-0.135697	-0.223503	0.0309126	0.771534	1.5708	0	0
2.44	-0.463475	1.40684	-1.06004	1.0069	-0.468279	0.949942	-0.126729	0.10464	-0.234695	0.211522	-0.297236	0	0	0.19385	-0.221259	-0.1167	1.2592	-0.230593	0	0	-0.216831	0.11545	-0.143909	-0.305125	-0.214705	-0.137184	0.722646	0.397006	0	0	-0.151105	-0.222496	0.0107362	0.773199	1.5708	0	0
2.45	-0.414448	1.40477	-1.11187	1.00634	-0.47731	0.950666	-0.148358	0.0999279	-0.231373	0.20145	-0.295923	0	0	0.205815	-0.211789	-0.119109	1.23877	-0.216211	0	0	-0.22495	0.107398	-0.141031	-0.302741	-0.212473	-0.138921	0.721143	0.399004	0	0	-0.158143	-0.223583	0.00531298	0.768397	1.5708	0	0
2.46	-0.368677	1.40158	-1.1605	1.00583	-0.48639	0.951295	-0.171023	0.0958301	-0.227569	0.190707	-0.294824	0	0	0.215251	-0.203461	-0.1254	1.21296	-0.204662	0	0	-0.233625	0.0999605	-0.137883	-0.301063	-0.210819	-0.140844	0.721142	0.402063	0	0	-0.165043	-0.224809	7.683e-05	0.76415	1.5708	0	0
2.47	-0.312625	1.39022	-1.22274	1.00512	-0.495898	0.952361	-0.205057	0.0922181	-0.221595	0.175254	-0.295263	0	0	0.215708	-0.209754	-0.191025	1.18945	-0.198416	0	0	-0.251506	0.0927044	-0.132082	-0.301117	-0.209338	-0.145493	0.726399	0.407533	0	0	-0.174177	-0.225826	-0.00804081	0.765197	1.5708	0	0
2.48	-0.277841	1.38698	-1.26117	1.00467	-0.505203	0.952606	-0.225126	0.0876201	-0.220747	0.169423	-0.288246	0	0	0.222831	-0.203792	-0.211579	1.15386	-0.191882	0	0	-0.257722	0.0862098	-0.125399	-0.302739	-0.208785	-0.148249	0.728362	0.406413	0	0	-0.177716	-0.22813	-0.00589699	0.758032	1.5708	0	0
2.49	-0.244174	1.38138	-1.29804	1.00428	-0.514389	0.952839	-0.248635	0.0839046	-0.217856	0.159592	-0.286994	0	0	0.225275	-0.196834	-0.228905	1.11124	-0.185304	0	0	-0.267732	0.079851	-0.123321	-0.300514	-0.209322	-0.14615	0.729854	0.403259	0	0	-0.186156	-0.229329	-0.0129725	0.757291	1.5708	0	0
2.5	-0.2131	1.37465	-1.33204	1.00399	-0.523523	0.953002	-0.273045	0.0804082	-0.215302	0.149294	-0.285866	0	0	0.224213	-0.188916	-0.244634	1.06114	-0.181153	0	0	-0.279112	0.0738469	-0.12147	-0.297986	-0.20991	-0.143975	0.731937	0.3999	0	0	-0.194674	-0.230387	-0.0210139	0.757537	1.5708	0	0
2.51	-0.186942	1.3682	-1.3609	1.00378	-0.532683	0.952999	-0.295786	0.0770195	-0.214657	0.141558	-0.284025	0	0	0.221137	-0.179683	-0.257209	1.00344	-0.180633	0	0	-0.289667	0.0683936	-0.11952	-0.295795	-0.210649	-0.141837	0.734422	0.397335	0	0	-0.202567	-0.231435	-0.0285486	0.757088	1.5708	0	0
2.52	-0.166134	1.36333	-1.38387	1.00367	-0.541788	0.952742	-0.315679	0.0739472	-0.214286	0.135723	-0.281361	0	0	0.217849	-0.169042	-0.266526	0.938694	-0.183818	0	0	-0.298215	0.0634776	-0.117654	-0.293523	-0.211259	-0.140068	0.736612	0.39475	0	0	-0.209574	-0.23257	-0.0352464	0.75546	1.5708	0	0
2.53	-0.148536	1.3586	-1.40286	1.00366	-0.55079	0.952356	-0.335197	0.0714269	-0.212624	0.129882	-0.277801	0	0	0.212518	-0.156903	-0.272677	0.866448	-0.195973	0	0	-0.305644	0.0613043	-0.103237	-0.301673	-0.190986	-0.199829	0.745644	0.442528	0	0	-0.202651	-0.239229	-0.0128891	0.742886	1.56461	0	0
2.54	-0.134143	1.35528	-1.41753	1.00384	-0.559829	0.951765	-0.353229	0.069418	-0.210697	0.12384	-0.275097	0	0	0.206147	-0.143414	-0.276291	0.787245	-0.214101	0	0	-0.313981	0.0548376	-0.12061	-0.28266	-0.217169	-0.120181	0.736061	0.377841	0	0	-0.226659	-0.232755	-0.0561737	0.755548	1.5708	0	0
2.55	-0.122756	1.35401	-1.42861	1.00413	-0.568994	0.950931	-0.368242	0.0675641	-0.21009	0.120127	-0.270183	0	0	0.198946	-0.128943	-0.277948	0.702496	-0.228854	0	0	-0.317578	0.05166	-0.120093	-0.280091	-0.216993	-0.120162	0.736065	0.378306	0	0	-0.230962	-0.233203	-0.0609253	0.750283	1.5708	0	0
2.56	-0.114364	1.35497	-1.43636	1.00452	-0.578258	0.949795	-0.380134	0.065947	-0.210959	0.118126	-0.26454	0	0	0.191277	-0.114014	-0.276793	0.613205	-0.242611	0	0	-0.318436	0.0489751	-0.119391	-0.278319	-0.216401	-0.12184	0.735941	0.378468	0	0	-0.234443	-0.233463	-0.065114	0.743487	1.5708	0	0
